# xmcd CD database file
#
# Track frame offsets:
#	150
#	21332
#	42150
#	61822
#	81792
#	106522
#	126747
#	141640
#	163660
#	174520
#	201742
#	227040
#
# Disc length: 3118 seconds
#
# Revision: 0
# Processed by: cddbd v1.5.2PL0 Copyright (c) Steve Scherf et al.
# Submitted via: CDex 1.70beta2
#
DISCID=ac0c2c0c
DTITLE=Big Bill Scoggin - Kingsize
DYEAR=1997
DGENRE=Blues
TTITLE0=Blues In The Neighborhood
TTITLE1=Blues Had A Baby
TTITLE2=31st Of November
TTITLE3=Linda Jean
TTITLE4=Rainy Night In Georgia
TTITLE5=Apple Jam
TTITLE6=Hook,Line And Sinker
TTITLE7=Use Me
TTITLE8=King Size Daddy
TTITLE9=It's True
TTITLE10=Party House
TTITLE11=Birth Of The Blues
EXTD=YEAR: 1997
EXTT0=
EXTT1=
EXTT2=
EXTT3=
EXTT4=
EXTT5=
EXTT6=
EXTT7=
EXTT8=
EXTT9=
EXTT10=
EXTT11=
PLAYORDER=
